<svg xmlns="http://www.w3.org/2000/svg" viewBox="0 0 1440 320"><path fill="#fff" fill-opacity="1" d="M0,288L60,192L120,288L180,96L240,128L300,256L360,160L420,64L480,128L540,96L600,320L660,32L720,32L780,320L840,288L900,160L960,256L1020,160L1080,288L1140,96L1200,192L1260,64L1320,128L1380,320L1440,128L1440,320L1380,320L1320,320L1260,320L1200,320L1140,320L1080,320L1020,320L960,320L900,320L840,320L780,320L720,320L660,320L600,320L540,320L480,320L420,320L360,320L300,320L240,320L180,320L120,320L60,320L0,320Z"></path></svg>